<svg id="visual" viewBox="0 0 900 600" width="900" height="600" xmlns="http://www.w3.org/2000/svg" xmlns:xlink="http://www.w3.org/1999/xlink" version="1.1"><path d="M0 181L13.7 176C27.3 171 54.7 161 82 154C109.3 147 136.7 143 163.8 139C191 135 218 131 245.2 129C272.3 127 299.7 127 327 130C354.3 133 381.7 139 409 145C436.3 151 463.7 157 491 163C518.3 169 545.7 175 573 176C600.3 177 627.7 173 654.8 162C682 151 709 133 736.2 130C763.3 127 790.7 139 818 143C845.3 147 872.7 143 886.3 141L900 139L900 0L886.3 0C872.7 0 845.3 0 818 0C790.7 0 763.3 0 736.2 0C709 0 682 0 654.8 0C627.7 0 600.3 0 573 0C545.7 0 518.3 0 491 0C463.7 0 436.3 0 409 0C381.7 0 354.3 0 327 0C299.7 0 272.3 0 245.2 0C218 0 191 0 163.8 0C136.7 0 109.3 0 82 0C54.7 0 27.3 0 13.7 0L0 0Z" fill="#474747"></path><path d="M0 295L13.7 293C27.3 291 54.7 287 82 282C109.3 277 136.7 271 163.8 270C191 269 218 273 245.2 270C272.3 267 299.7 257 327 254C354.3 251 381.7 255 409 258C436.3 261 463.7 263 491 269C518.3 275 545.7 285 573 288C600.3 291 627.7 287 654.8 283C682 279 709 275 736.2 275C763.3 275 790.7 279 818 283C845.3 287 872.7 291 886.3 293L900 295L900 137L886.3 139C872.7 141 845.3 145 818 141C790.7 137 763.3 125 736.2 128C709 131 682 149 654.8 160C627.7 171 600.3 175 573 174C545.7 173 518.3 167 491 161C463.7 155 436.3 149 409 143C381.7 137 354.3 131 327 128C299.7 125 272.3 125 245.2 127C218 129 191 133 163.8 137C136.7 141 109.3 145 82 152C54.7 159 27.3 169 13.7 174L0 179Z" fill="#3d3d3d"></path><path d="M0 331L13.7 331C27.3 331 54.7 331 82 327C109.3 323 136.7 315 163.8 314C191 313 218 319 245.2 318C272.3 317 299.7 309 327 304C354.3 299 381.7 297 409 300C436.3 303 463.7 311 491 317C518.3 323 545.7 327 573 329C600.3 331 627.7 331 654.8 328C682 325 709 319 736.2 318C763.3 317 790.7 321 818 326C845.3 331 872.7 337 886.3 340L900 343L900 293L886.3 291C872.7 289 845.3 285 818 281C790.7 277 763.3 273 736.2 273C709 273 682 277 654.8 281C627.7 285 600.3 289 573 286C545.7 283 518.3 273 491 267C463.7 261 436.3 259 409 256C381.7 253 354.3 249 327 252C299.7 255 272.3 265 245.2 268C218 271 191 267 163.8 268C136.7 269 109.3 275 82 280C54.7 285 27.3 289 13.7 291L0 293Z" fill="#333333"></path><path d="M0 385L13.7 386C27.3 387 54.7 389 82 385C109.3 381 136.7 371 163.8 369C191 367 218 373 245.2 375C272.3 377 299.7 375 327 372C354.3 369 381.7 365 409 364C436.3 363 463.7 365 491 370C518.3 375 545.7 383 573 388C600.3 393 627.7 395 654.8 392C682 389 709 381 736.2 381C763.3 381 790.7 389 818 394C845.3 399 872.7 401 886.3 402L900 403L900 341L886.3 338C872.7 335 845.3 329 818 324C790.7 319 763.3 315 736.2 316C709 317 682 323 654.8 326C627.7 329 600.3 329 573 327C545.7 325 518.3 321 491 315C463.7 309 436.3 301 409 298C381.7 295 354.3 297 327 302C299.7 307 272.3 315 245.2 316C218 317 191 311 163.8 312C136.7 313 109.3 321 82 325C54.7 329 27.3 329 13.7 329L0 329Z" fill="#292929"></path><path d="M0 439L13.7 438C27.3 437 54.7 435 82 430C109.3 425 136.7 417 163.8 418C191 419 218 429 245.2 434C272.3 439 299.7 439 327 437C354.3 435 381.7 431 409 429C436.3 427 463.7 427 491 430C518.3 433 545.7 439 573 444C600.3 449 627.7 453 654.8 450C682 447 709 437 736.2 435C763.3 433 790.7 439 818 444C845.3 449 872.7 453 886.3 455L900 457L900 401L886.3 400C872.7 399 845.3 397 818 392C790.7 387 763.3 379 736.2 379C709 379 682 387 654.8 390C627.7 393 600.3 391 573 386C545.7 381 518.3 373 491 368C463.7 363 436.3 361 409 362C381.7 363 354.3 367 327 370C299.7 373 272.3 375 245.2 373C218 371 191 365 163.8 367C136.7 369 109.3 379 82 383C54.7 387 27.3 385 13.7 384L0 383Z" fill="#232323"></path><path d="M0 475L13.7 476C27.3 477 54.7 479 82 476C109.3 473 136.7 465 163.8 464C191 463 218 469 245.2 472C272.3 475 299.7 475 327 473C354.3 471 381.7 467 409 467C436.3 467 463.7 471 491 475C518.3 479 545.7 483 573 487C600.3 491 627.7 495 654.8 493C682 491 709 483 736.2 482C763.3 481 790.7 487 818 490C845.3 493 872.7 493 886.3 493L900 493L900 455L886.3 453C872.7 451 845.3 447 818 442C790.7 437 763.3 431 736.2 433C709 435 682 445 654.8 448C627.7 451 600.3 447 573 442C545.7 437 518.3 431 491 428C463.7 425 436.3 425 409 427C381.7 429 354.3 433 327 435C299.7 437 272.3 437 245.2 432C218 427 191 417 163.8 416C136.7 415 109.3 423 82 428C54.7 433 27.3 435 13.7 436L0 437Z" fill="#212121"></path><path d="M0 559L13.7 559C27.3 559 54.7 559 82 559C109.3 559 136.7 559 163.8 559C191 559 218 559 245.2 561C272.3 563 299.7 567 327 567C354.3 567 381.7 563 409 561C436.3 559 463.7 559 491 559C518.3 559 545.7 559 573 561C600.3 563 627.7 567 654.8 569C682 571 709 571 736.2 569C763.3 567 790.7 563 818 563C845.3 563 872.7 567 886.3 569L900 571L900 491L886.3 491C872.7 491 845.3 491 818 488C790.7 485 763.3 479 736.2 480C709 481 682 489 654.8 491C627.7 493 600.3 489 573 485C545.7 481 518.3 477 491 473C463.7 469 436.3 465 409 465C381.7 465 354.3 469 327 471C299.7 473 272.3 473 245.2 470C218 467 191 461 163.8 462C136.7 463 109.3 471 82 474C54.7 477 27.3 475 13.7 474L0 473Z" fill="#1e1e1e"></path><path d="M0 601L13.7 601C27.3 601 54.7 601 82 601C109.3 601 136.7 601 163.8 601C191 601 218 601 245.2 601C272.3 601 299.7 601 327 601C354.3 601 381.7 601 409 601C436.3 601 463.7 601 491 601C518.3 601 545.7 601 573 601C600.3 601 627.7 601 654.8 601C682 601 709 601 736.2 601C763.3 601 790.7 601 818 601C845.3 601 872.7 601 886.3 601L900 601L900 569L886.3 567C872.7 565 845.3 561 818 561C790.7 561 763.3 565 736.2 567C709 569 682 569 654.8 567C627.7 565 600.3 561 573 559C545.7 557 518.3 557 491 557C463.7 557 436.3 557 409 559C381.7 561 354.3 565 327 565C299.7 565 272.3 561 245.2 559C218 557 191 557 163.8 557C136.7 557 109.3 557 82 557C54.7 557 27.3 557 13.7 557L0 557Z" fill="#1c1c1c"></path></svg>